<mxfile host="Electron" modified="2023-05-27T16:40:02.522Z" agent="Mozilla/5.0 (Macintosh; Intel Mac OS X 10_15_7) AppleWebKit/537.36 (KHTML, like Gecko) draw.io/21.2.1 Chrome/112.0.5615.87 Electron/24.1.2 Safari/537.36" etag="8wUdr8K3_dH2eNR3auql" version="21.2.1" type="device">
  <diagram name="Page-1" id="H1nZVYqxkzLZFgEqRADx">
    <mxGraphModel dx="2290" dy="5380" grid="1" gridSize="10" guides="1" tooltips="1" connect="1" arrows="1" fold="1" page="1" pageScale="1" pageWidth="850" pageHeight="1100" math="0" shadow="0">
      <root>
        <mxCell id="0" />
        <mxCell id="1" parent="0" />
        <mxCell id="AsBp8XiL8Dx4Y6rQVwFH-4225" value="R, W: 139, H: 128, ORDER: 15, GC: {48, 28, 26, 37, 10, 16, 20, 8, 12, 6, 5, 32, 27, 80, 59} " style="text;html=1;strokeColor=none;fillColor=none;align=center;verticalAlign=middle;whiteSpace=wrap;rounded=0;fontSize=32;" parent="1" vertex="1">
          <mxGeometry x="1490" width="1390" height="30" as="geometry" />
        </mxCell>
        <mxCell id="AsBp8XiL8Dx4Y6rQVwFH-11469" value="R, W: 139, H: 125, ORDER: 19, GC: {61, 34, 44, 24, 10, 14, 40, 3, 35, 9, 13, 18, 64, 32, 12, 8, 5, 23, 20} " style="text;html=1;strokeColor=none;fillColor=none;align=center;verticalAlign=middle;whiteSpace=wrap;rounded=0;fontSize=32;" parent="1" vertex="1">
          <mxGeometry x="1450" y="1480" width="1390" height="30" as="geometry" />
        </mxCell>
        <mxCell id="AsBp8XiL8Dx4Y6rQVwFH-11549" value="R, W: 139, H: 123, ORDER: 19, GC: {60, 34, 45, 23, 11, 32, 3, 20, 24, 8, 6, 10, 2, 4, 63, 46, 16, 14, 30} " style="text;html=1;strokeColor=none;fillColor=none;align=center;verticalAlign=middle;whiteSpace=wrap;rounded=0;fontSize=32;" parent="1" vertex="1">
          <mxGeometry x="1450" y="2840" width="1390" height="30" as="geometry" />
        </mxCell>
        <mxCell id="AsBp8XiL8Dx4Y6rQVwFH-18047" value="R, W: 139, H: 109, ORDER: 20, GC: {53, 32, 24, 30, 18, 6, 21, 11, 36, 1, 17, 12, 56, 16, 2, 14, 10, 7, 43, 40} " style="text;html=1;strokeColor=none;fillColor=none;align=center;verticalAlign=middle;whiteSpace=wrap;rounded=0;fontSize=32;" parent="1" vertex="1">
          <mxGeometry x="1430" y="4220" width="1390" height="30" as="geometry" />
        </mxCell>
        <mxCell id="AsBp8XiL8Dx4Y6rQVwFH-42663" value="R, W: 139, H: 116, ORDER: 22, GC: {52, 40, 19, 28, 10, 9, 1, 36, 11, 12, 39, 15, 21, 64, 37, 17, 8, 13, 3, 5, 20, 18} " style="text;html=1;strokeColor=none;fillColor=none;align=center;verticalAlign=middle;whiteSpace=wrap;rounded=0;fontSize=32;" parent="1" vertex="1">
          <mxGeometry x="1450" y="5440" width="1390" height="30" as="geometry" />
        </mxCell>
        <mxCell id="AsBp8XiL8Dx4Y6rQVwFH-42778" value="S, W: 139, H: 139, ORDER: 22, GC: {30, 31, 29, 1, 32, 28, 4, 24, 22, 2, 20, 8, 18, 3, 10, 7, 27, 17, 38, 80, 21, 59} " style="text;html=1;strokeColor=none;fillColor=none;align=center;verticalAlign=middle;whiteSpace=wrap;rounded=0;fontSize=32;" parent="1" vertex="1">
          <mxGeometry x="1490" y="6700" width="1390" height="30" as="geometry" />
        </mxCell>
        <mxCell id="AsBp8XiL8Dx4Y6rQVwFH-42939" value="R, W: 139, H: 96, ORDER: 22, GC: {39, 21, 24, 18, 3, 29, 26, 10, 16, 27, 22, 7, 11, 6, 5, 17, 4, 12, 57, 45, 8, 37} " style="text;html=1;strokeColor=none;fillColor=none;align=center;verticalAlign=middle;whiteSpace=wrap;rounded=0;fontSize=32;" parent="1" vertex="1">
          <mxGeometry x="1470" y="8280" width="1390" height="30" as="geometry" />
        </mxCell>
        <mxCell id="AsBp8XiL8Dx4Y6rQVwFH-44361" value="S, W: 139, H: 139, ORDER: 23, GC: {33, 28, 32, 12, 16, 26, 7, 19, 24, 22, 2, 20, 8, 18, 13, 15, 1, 27, 14, 38, 80, 21, 59} " style="text;html=1;strokeColor=none;fillColor=none;align=center;verticalAlign=middle;whiteSpace=wrap;rounded=0;fontSize=32;" parent="1" vertex="1">
          <mxGeometry x="1510" y="9380" width="1390" height="30" as="geometry" />
        </mxCell>
        <mxCell id="AsBp8XiL8Dx4Y6rQVwFH-44529" value="R, W: 139, H: 100, ORDER: 23, GC: {45, 35, 33, 26, 7, 19, 27, 13, 1, 18, 14, 10, 25, 55, 40, 23, 3, 21, 17, 6, 5, 16, 11} " style="text;html=1;strokeColor=none;fillColor=none;align=center;verticalAlign=middle;whiteSpace=wrap;rounded=0;fontSize=32;" parent="1" vertex="1">
          <mxGeometry x="1490" y="10930" width="1390" height="30" as="geometry" />
        </mxCell>
        <mxCell id="AsBp8XiL8Dx4Y6rQVwFH-44601" value="R, W: 139, H: 124, ORDER: 23, GC: {53, 19, 14, 24, 8, 6, 2, 4, 16, 3, 13, 29, 11, 12, 5, 7, 27, 18, 21, 1, 20, 71, 68} " style="text;html=1;strokeColor=none;fillColor=none;align=center;verticalAlign=middle;whiteSpace=wrap;rounded=0;fontSize=32;" parent="1" vertex="1">
          <mxGeometry x="1490" y="12030" width="1390" height="30" as="geometry" />
        </mxCell>
        <mxCell id="AsBp8XiL8Dx4Y6rQVwFH-46425" value="R, W: 139, H: 136, ORDER: 24, GC: {37, 29, 27, 46, 2, 25, 8, 23, 45, 6, 40, 30, 24, 5, 9, 1, 4, 10, 54, 19, 3, 16, 50, 35} " style="text;html=1;strokeColor=none;fillColor=none;align=center;verticalAlign=middle;whiteSpace=wrap;rounded=0;fontSize=32;" parent="1" vertex="1">
          <mxGeometry x="1490" y="13350" width="1390" height="30" as="geometry" />
        </mxCell>
        <mxCell id="2yJXHjSfP-utzKxr89We-1" value="" style="group;flipV=1;" vertex="1" connectable="0" parent="1">
          <mxGeometry x="1490" y="50" width="1390" height="1280" as="geometry" />
        </mxCell>
        <mxCell id="761dnnyQ54j-Cl0NHfQN-4226" value="48" style="rounded=0;whiteSpace=wrap;html=1;fontSize=32;" parent="2yJXHjSfP-utzKxr89We-1" vertex="1">
          <mxGeometry y="800" width="480" height="480" as="geometry" />
        </mxCell>
        <mxCell id="761dnnyQ54j-Cl0NHfQN-4227" value="28" style="rounded=0;whiteSpace=wrap;html=1;fontSize=32;" parent="2yJXHjSfP-utzKxr89We-1" vertex="1">
          <mxGeometry x="480" y="1000" width="280" height="280" as="geometry" />
        </mxCell>
        <mxCell id="761dnnyQ54j-Cl0NHfQN-4228" value="26" style="rounded=0;whiteSpace=wrap;html=1;fontSize=32;" parent="2yJXHjSfP-utzKxr89We-1" vertex="1">
          <mxGeometry x="760" y="1020" width="260" height="260" as="geometry" />
        </mxCell>
        <mxCell id="761dnnyQ54j-Cl0NHfQN-4229" value="37" style="rounded=0;whiteSpace=wrap;html=1;fontSize=32;" parent="2yJXHjSfP-utzKxr89We-1" vertex="1">
          <mxGeometry x="1020" y="910" width="370" height="370" as="geometry" />
        </mxCell>
        <mxCell id="761dnnyQ54j-Cl0NHfQN-4230" value="10" style="rounded=0;whiteSpace=wrap;html=1;fontSize=32;" parent="2yJXHjSfP-utzKxr89We-1" vertex="1">
          <mxGeometry x="760" y="920" width="100" height="100" as="geometry" />
        </mxCell>
        <mxCell id="761dnnyQ54j-Cl0NHfQN-4231" value="16" style="rounded=0;whiteSpace=wrap;html=1;fontSize=32;" parent="2yJXHjSfP-utzKxr89We-1" vertex="1">
          <mxGeometry x="860" y="860" width="160" height="160" as="geometry" />
        </mxCell>
        <mxCell id="761dnnyQ54j-Cl0NHfQN-4232" value="20" style="rounded=0;whiteSpace=wrap;html=1;fontSize=32;" parent="2yJXHjSfP-utzKxr89We-1" vertex="1">
          <mxGeometry x="480" y="800" width="200" height="200" as="geometry" />
        </mxCell>
        <mxCell id="761dnnyQ54j-Cl0NHfQN-4233" value="8" style="rounded=0;whiteSpace=wrap;html=1;fontSize=32;" parent="2yJXHjSfP-utzKxr89We-1" vertex="1">
          <mxGeometry x="680" y="920" width="80" height="80" as="geometry" />
        </mxCell>
        <mxCell id="761dnnyQ54j-Cl0NHfQN-4234" value="12" style="rounded=0;whiteSpace=wrap;html=1;fontSize=32;" parent="2yJXHjSfP-utzKxr89We-1" vertex="1">
          <mxGeometry x="680" y="800" width="120" height="120" as="geometry" />
        </mxCell>
        <mxCell id="761dnnyQ54j-Cl0NHfQN-4235" value="6" style="rounded=0;whiteSpace=wrap;html=1;fontSize=32;" parent="2yJXHjSfP-utzKxr89We-1" vertex="1">
          <mxGeometry x="800" y="860" width="60" height="60" as="geometry" />
        </mxCell>
        <mxCell id="761dnnyQ54j-Cl0NHfQN-4236" value="5" style="rounded=0;whiteSpace=wrap;html=1;fontSize=32;" parent="2yJXHjSfP-utzKxr89We-1" vertex="1">
          <mxGeometry x="1020" y="860" width="50" height="50" as="geometry" />
        </mxCell>
        <mxCell id="761dnnyQ54j-Cl0NHfQN-4237" value="32" style="rounded=0;whiteSpace=wrap;html=1;fontSize=32;" parent="2yJXHjSfP-utzKxr89We-1" vertex="1">
          <mxGeometry x="1070" y="590" width="320" height="320" as="geometry" />
        </mxCell>
        <mxCell id="761dnnyQ54j-Cl0NHfQN-4238" value="27" style="rounded=0;whiteSpace=wrap;html=1;fontSize=32;" parent="2yJXHjSfP-utzKxr89We-1" vertex="1">
          <mxGeometry x="800" y="590" width="270" height="270" as="geometry" />
        </mxCell>
        <mxCell id="761dnnyQ54j-Cl0NHfQN-4239" value="80" style="rounded=0;whiteSpace=wrap;html=1;fontSize=32;" parent="2yJXHjSfP-utzKxr89We-1" vertex="1">
          <mxGeometry width="800" height="800" as="geometry" />
        </mxCell>
        <mxCell id="761dnnyQ54j-Cl0NHfQN-4240" value="59" style="rounded=0;whiteSpace=wrap;html=1;fontSize=32;" parent="2yJXHjSfP-utzKxr89We-1" vertex="1">
          <mxGeometry x="800" width="590" height="590" as="geometry" />
        </mxCell>
        <mxCell id="2yJXHjSfP-utzKxr89We-2" value="" style="group;flipV=1;" vertex="1" connectable="0" parent="1">
          <mxGeometry x="1450" y="1530" width="1390" height="1250" as="geometry" />
        </mxCell>
        <mxCell id="761dnnyQ54j-Cl0NHfQN-11470" value="61" style="rounded=0;whiteSpace=wrap;html=1;fontSize=32;" parent="2yJXHjSfP-utzKxr89We-2" vertex="1">
          <mxGeometry y="640" width="610" height="610" as="geometry" />
        </mxCell>
        <mxCell id="761dnnyQ54j-Cl0NHfQN-11471" value="34" style="rounded=0;whiteSpace=wrap;html=1;fontSize=32;" parent="2yJXHjSfP-utzKxr89We-2" vertex="1">
          <mxGeometry x="610" y="910" width="340" height="340" as="geometry" />
        </mxCell>
        <mxCell id="761dnnyQ54j-Cl0NHfQN-11472" value="44" style="rounded=0;whiteSpace=wrap;html=1;fontSize=32;" parent="2yJXHjSfP-utzKxr89We-2" vertex="1">
          <mxGeometry x="950" y="810" width="440" height="440" as="geometry" />
        </mxCell>
        <mxCell id="761dnnyQ54j-Cl0NHfQN-11473" value="24" style="rounded=0;whiteSpace=wrap;html=1;fontSize=32;" parent="2yJXHjSfP-utzKxr89We-2" vertex="1">
          <mxGeometry x="610" y="670" width="240" height="240" as="geometry" />
        </mxCell>
        <mxCell id="761dnnyQ54j-Cl0NHfQN-11474" value="10" style="rounded=0;whiteSpace=wrap;html=1;fontSize=32;" parent="2yJXHjSfP-utzKxr89We-2" vertex="1">
          <mxGeometry x="850" y="810" width="100" height="100" as="geometry" />
        </mxCell>
        <mxCell id="761dnnyQ54j-Cl0NHfQN-11475" value="14" style="rounded=0;whiteSpace=wrap;html=1;fontSize=32;" parent="2yJXHjSfP-utzKxr89We-2" vertex="1">
          <mxGeometry x="850" y="670" width="140" height="140" as="geometry" />
        </mxCell>
        <mxCell id="761dnnyQ54j-Cl0NHfQN-11476" value="40" style="rounded=0;whiteSpace=wrap;html=1;fontSize=32;" parent="2yJXHjSfP-utzKxr89We-2" vertex="1">
          <mxGeometry x="990" y="410" width="400" height="400" as="geometry" />
        </mxCell>
        <mxCell id="761dnnyQ54j-Cl0NHfQN-11477" value="3" style="rounded=0;whiteSpace=wrap;html=1;fontSize=32;" parent="2yJXHjSfP-utzKxr89We-2" vertex="1">
          <mxGeometry x="610" y="640" width="30" height="30" as="geometry" />
        </mxCell>
        <mxCell id="761dnnyQ54j-Cl0NHfQN-11478" value="35" style="rounded=0;whiteSpace=wrap;html=1;fontSize=32;" parent="2yJXHjSfP-utzKxr89We-2" vertex="1">
          <mxGeometry x="640" y="320" width="350" height="350" as="geometry" />
        </mxCell>
        <mxCell id="761dnnyQ54j-Cl0NHfQN-11479" value="9" style="rounded=0;whiteSpace=wrap;html=1;fontSize=32;" parent="2yJXHjSfP-utzKxr89We-2" vertex="1">
          <mxGeometry x="990" y="320" width="90" height="90" as="geometry" />
        </mxCell>
        <mxCell id="761dnnyQ54j-Cl0NHfQN-11480" value="13" style="rounded=0;whiteSpace=wrap;html=1;fontSize=32;" parent="2yJXHjSfP-utzKxr89We-2" vertex="1">
          <mxGeometry x="1080" y="280" width="130" height="130" as="geometry" />
        </mxCell>
        <mxCell id="761dnnyQ54j-Cl0NHfQN-11481" value="18" style="rounded=0;whiteSpace=wrap;html=1;fontSize=32;" parent="2yJXHjSfP-utzKxr89We-2" vertex="1">
          <mxGeometry x="1210" y="230" width="180" height="180" as="geometry" />
        </mxCell>
        <mxCell id="761dnnyQ54j-Cl0NHfQN-11482" value="64" style="rounded=0;whiteSpace=wrap;html=1;fontSize=32;" parent="2yJXHjSfP-utzKxr89We-2" vertex="1">
          <mxGeometry width="640" height="640" as="geometry" />
        </mxCell>
        <mxCell id="761dnnyQ54j-Cl0NHfQN-11483" value="32" style="rounded=0;whiteSpace=wrap;html=1;fontSize=32;" parent="2yJXHjSfP-utzKxr89We-2" vertex="1">
          <mxGeometry x="640" width="320" height="320" as="geometry" />
        </mxCell>
        <mxCell id="761dnnyQ54j-Cl0NHfQN-11484" value="12" style="rounded=0;whiteSpace=wrap;html=1;fontSize=32;" parent="2yJXHjSfP-utzKxr89We-2" vertex="1">
          <mxGeometry x="960" y="200" width="120" height="120" as="geometry" />
        </mxCell>
        <mxCell id="761dnnyQ54j-Cl0NHfQN-11485" value="8" style="rounded=0;whiteSpace=wrap;html=1;fontSize=32;" parent="2yJXHjSfP-utzKxr89We-2" vertex="1">
          <mxGeometry x="1080" y="200" width="80" height="80" as="geometry" />
        </mxCell>
        <mxCell id="761dnnyQ54j-Cl0NHfQN-11486" value="5" style="rounded=0;whiteSpace=wrap;html=1;fontSize=32;" parent="2yJXHjSfP-utzKxr89We-2" vertex="1">
          <mxGeometry x="1160" y="230" width="50" height="50" as="geometry" />
        </mxCell>
        <mxCell id="761dnnyQ54j-Cl0NHfQN-11487" value="23" style="rounded=0;whiteSpace=wrap;html=1;fontSize=32;" parent="2yJXHjSfP-utzKxr89We-2" vertex="1">
          <mxGeometry x="1160" width="230" height="230" as="geometry" />
        </mxCell>
        <mxCell id="761dnnyQ54j-Cl0NHfQN-11488" value="20" style="rounded=0;whiteSpace=wrap;html=1;fontSize=32;" parent="2yJXHjSfP-utzKxr89We-2" vertex="1">
          <mxGeometry x="960" width="200" height="200" as="geometry" />
        </mxCell>
        <mxCell id="2yJXHjSfP-utzKxr89We-3" value="" style="group;flipV=1;" vertex="1" connectable="0" parent="1">
          <mxGeometry x="1450" y="2890" width="1390" height="1230" as="geometry" />
        </mxCell>
        <mxCell id="761dnnyQ54j-Cl0NHfQN-11550" value="60" style="rounded=0;whiteSpace=wrap;html=1;fontSize=32;" parent="2yJXHjSfP-utzKxr89We-3" vertex="1">
          <mxGeometry y="630" width="600" height="600" as="geometry" />
        </mxCell>
        <mxCell id="761dnnyQ54j-Cl0NHfQN-11551" value="34" style="rounded=0;whiteSpace=wrap;html=1;fontSize=32;" parent="2yJXHjSfP-utzKxr89We-3" vertex="1">
          <mxGeometry x="600" y="890" width="340" height="340" as="geometry" />
        </mxCell>
        <mxCell id="761dnnyQ54j-Cl0NHfQN-11552" value="45" style="rounded=0;whiteSpace=wrap;html=1;fontSize=32;" parent="2yJXHjSfP-utzKxr89We-3" vertex="1">
          <mxGeometry x="940" y="780" width="450" height="450" as="geometry" />
        </mxCell>
        <mxCell id="761dnnyQ54j-Cl0NHfQN-11553" value="23" style="rounded=0;whiteSpace=wrap;html=1;fontSize=32;" parent="2yJXHjSfP-utzKxr89We-3" vertex="1">
          <mxGeometry x="600" y="660" width="230" height="230" as="geometry" />
        </mxCell>
        <mxCell id="761dnnyQ54j-Cl0NHfQN-11554" value="11" style="rounded=0;whiteSpace=wrap;html=1;fontSize=32;" parent="2yJXHjSfP-utzKxr89We-3" vertex="1">
          <mxGeometry x="830" y="780" width="110" height="110" as="geometry" />
        </mxCell>
        <mxCell id="761dnnyQ54j-Cl0NHfQN-11555" value="32" style="rounded=0;whiteSpace=wrap;html=1;fontSize=32;" parent="2yJXHjSfP-utzKxr89We-3" vertex="1">
          <mxGeometry x="830" y="460" width="320" height="320" as="geometry" />
        </mxCell>
        <mxCell id="761dnnyQ54j-Cl0NHfQN-11556" value="3" style="rounded=0;whiteSpace=wrap;html=1;fontSize=32;" parent="2yJXHjSfP-utzKxr89We-3" vertex="1">
          <mxGeometry x="600" y="630" width="30" height="30" as="geometry" />
        </mxCell>
        <mxCell id="761dnnyQ54j-Cl0NHfQN-11557" value="20" style="rounded=0;whiteSpace=wrap;html=1;fontSize=32;" parent="2yJXHjSfP-utzKxr89We-3" vertex="1">
          <mxGeometry x="630" y="460" width="200" height="200" as="geometry" />
        </mxCell>
        <mxCell id="761dnnyQ54j-Cl0NHfQN-11558" value="24" style="rounded=0;whiteSpace=wrap;html=1;fontSize=32;" parent="2yJXHjSfP-utzKxr89We-3" vertex="1">
          <mxGeometry x="1150" y="540" width="240" height="240" as="geometry" />
        </mxCell>
        <mxCell id="761dnnyQ54j-Cl0NHfQN-11559" value="8" style="rounded=0;whiteSpace=wrap;html=1;fontSize=32;" parent="2yJXHjSfP-utzKxr89We-3" vertex="1">
          <mxGeometry x="1150" y="460" width="80" height="80" as="geometry" />
        </mxCell>
        <mxCell id="761dnnyQ54j-Cl0NHfQN-11560" value="6" style="rounded=0;whiteSpace=wrap;html=1;fontSize=32;" parent="2yJXHjSfP-utzKxr89We-3" vertex="1">
          <mxGeometry x="1230" y="480" width="60" height="60" as="geometry" />
        </mxCell>
        <mxCell id="761dnnyQ54j-Cl0NHfQN-11561" value="10" style="rounded=0;whiteSpace=wrap;html=1;fontSize=32;" parent="2yJXHjSfP-utzKxr89We-3" vertex="1">
          <mxGeometry x="1290" y="440" width="100" height="100" as="geometry" />
        </mxCell>
        <mxCell id="761dnnyQ54j-Cl0NHfQN-11562" value="2" style="rounded=0;whiteSpace=wrap;html=1;fontSize=32;" parent="2yJXHjSfP-utzKxr89We-3" vertex="1">
          <mxGeometry x="1230" y="460" width="20" height="20" as="geometry" />
        </mxCell>
        <mxCell id="761dnnyQ54j-Cl0NHfQN-11563" value="4" style="rounded=0;whiteSpace=wrap;html=1;fontSize=32;" parent="2yJXHjSfP-utzKxr89We-3" vertex="1">
          <mxGeometry x="1250" y="440" width="40" height="40" as="geometry" />
        </mxCell>
        <mxCell id="761dnnyQ54j-Cl0NHfQN-11564" value="63" style="rounded=0;whiteSpace=wrap;html=1;fontSize=32;" parent="2yJXHjSfP-utzKxr89We-3" vertex="1">
          <mxGeometry width="630" height="630" as="geometry" />
        </mxCell>
        <mxCell id="761dnnyQ54j-Cl0NHfQN-11565" value="46" style="rounded=0;whiteSpace=wrap;html=1;fontSize=32;" parent="2yJXHjSfP-utzKxr89We-3" vertex="1">
          <mxGeometry x="630" width="460" height="460" as="geometry" />
        </mxCell>
        <mxCell id="761dnnyQ54j-Cl0NHfQN-11566" value="16" style="rounded=0;whiteSpace=wrap;html=1;fontSize=32;" parent="2yJXHjSfP-utzKxr89We-3" vertex="1">
          <mxGeometry x="1090" y="300" width="160" height="160" as="geometry" />
        </mxCell>
        <mxCell id="761dnnyQ54j-Cl0NHfQN-11567" value="14" style="rounded=0;whiteSpace=wrap;html=1;fontSize=32;" parent="2yJXHjSfP-utzKxr89We-3" vertex="1">
          <mxGeometry x="1250" y="300" width="140" height="140" as="geometry" />
        </mxCell>
        <mxCell id="761dnnyQ54j-Cl0NHfQN-11568" value="30" style="rounded=0;whiteSpace=wrap;html=1;fontSize=32;" parent="2yJXHjSfP-utzKxr89We-3" vertex="1">
          <mxGeometry x="1090" width="300" height="300" as="geometry" />
        </mxCell>
        <mxCell id="2yJXHjSfP-utzKxr89We-4" value="" style="group;flipV=1;" vertex="1" connectable="0" parent="1">
          <mxGeometry x="1430" y="4270" width="1390" height="1090" as="geometry" />
        </mxCell>
        <mxCell id="761dnnyQ54j-Cl0NHfQN-18048" value="53" style="rounded=0;whiteSpace=wrap;html=1;fontSize=32;" parent="2yJXHjSfP-utzKxr89We-4" vertex="1">
          <mxGeometry y="560" width="530" height="530" as="geometry" />
        </mxCell>
        <mxCell id="761dnnyQ54j-Cl0NHfQN-18049" value="32" style="rounded=0;whiteSpace=wrap;html=1;fontSize=32;" parent="2yJXHjSfP-utzKxr89We-4" vertex="1">
          <mxGeometry x="530" y="770" width="320" height="320" as="geometry" />
        </mxCell>
        <mxCell id="761dnnyQ54j-Cl0NHfQN-18050" value="24" style="rounded=0;whiteSpace=wrap;html=1;fontSize=32;" parent="2yJXHjSfP-utzKxr89We-4" vertex="1">
          <mxGeometry x="850" y="850" width="240" height="240" as="geometry" />
        </mxCell>
        <mxCell id="761dnnyQ54j-Cl0NHfQN-18051" value="30" style="rounded=0;whiteSpace=wrap;html=1;fontSize=32;" parent="2yJXHjSfP-utzKxr89We-4" vertex="1">
          <mxGeometry x="1090" y="790" width="300" height="300" as="geometry" />
        </mxCell>
        <mxCell id="761dnnyQ54j-Cl0NHfQN-18052" value="18" style="rounded=0;whiteSpace=wrap;html=1;fontSize=32;" parent="2yJXHjSfP-utzKxr89We-4" vertex="1">
          <mxGeometry x="850" y="670" width="180" height="180" as="geometry" />
        </mxCell>
        <mxCell id="761dnnyQ54j-Cl0NHfQN-18053" value="6" style="rounded=0;whiteSpace=wrap;html=1;fontSize=32;" parent="2yJXHjSfP-utzKxr89We-4" vertex="1">
          <mxGeometry x="1030" y="790" width="60" height="60" as="geometry" />
        </mxCell>
        <mxCell id="761dnnyQ54j-Cl0NHfQN-18054" value="21" style="rounded=0;whiteSpace=wrap;html=1;fontSize=32;" parent="2yJXHjSfP-utzKxr89We-4" vertex="1">
          <mxGeometry x="530" y="560" width="210" height="210" as="geometry" />
        </mxCell>
        <mxCell id="761dnnyQ54j-Cl0NHfQN-18055" value="11" style="rounded=0;whiteSpace=wrap;html=1;fontSize=32;" parent="2yJXHjSfP-utzKxr89We-4" vertex="1">
          <mxGeometry x="740" y="660" width="110" height="110" as="geometry" />
        </mxCell>
        <mxCell id="761dnnyQ54j-Cl0NHfQN-18056" value="36" style="rounded=0;whiteSpace=wrap;html=1;fontSize=32;" parent="2yJXHjSfP-utzKxr89We-4" vertex="1">
          <mxGeometry x="1030" y="430" width="360" height="360" as="geometry" />
        </mxCell>
        <mxCell id="761dnnyQ54j-Cl0NHfQN-18057" value="1" style="rounded=0;whiteSpace=wrap;html=1;fontSize=32;" parent="2yJXHjSfP-utzKxr89We-4" vertex="1">
          <mxGeometry x="850" y="660" width="10" height="10" as="geometry" />
        </mxCell>
        <mxCell id="761dnnyQ54j-Cl0NHfQN-18058" value="17" style="rounded=0;whiteSpace=wrap;html=1;fontSize=32;" parent="2yJXHjSfP-utzKxr89We-4" vertex="1">
          <mxGeometry x="860" y="500" width="170" height="170" as="geometry" />
        </mxCell>
        <mxCell id="761dnnyQ54j-Cl0NHfQN-18059" value="12" style="rounded=0;whiteSpace=wrap;html=1;fontSize=32;" parent="2yJXHjSfP-utzKxr89We-4" vertex="1">
          <mxGeometry x="740" y="540" width="120" height="120" as="geometry" />
        </mxCell>
        <mxCell id="761dnnyQ54j-Cl0NHfQN-18060" value="56" style="rounded=0;whiteSpace=wrap;html=1;fontSize=32;" parent="2yJXHjSfP-utzKxr89We-4" vertex="1">
          <mxGeometry width="560" height="560" as="geometry" />
        </mxCell>
        <mxCell id="761dnnyQ54j-Cl0NHfQN-18061" value="16" style="rounded=0;whiteSpace=wrap;html=1;fontSize=32;" parent="2yJXHjSfP-utzKxr89We-4" vertex="1">
          <mxGeometry x="560" y="400" width="160" height="160" as="geometry" />
        </mxCell>
        <mxCell id="761dnnyQ54j-Cl0NHfQN-18062" value="2" style="rounded=0;whiteSpace=wrap;html=1;fontSize=32;" parent="2yJXHjSfP-utzKxr89We-4" vertex="1">
          <mxGeometry x="720" y="540" width="20" height="20" as="geometry" />
        </mxCell>
        <mxCell id="761dnnyQ54j-Cl0NHfQN-18063" value="14" style="rounded=0;whiteSpace=wrap;html=1;fontSize=32;" parent="2yJXHjSfP-utzKxr89We-4" vertex="1">
          <mxGeometry x="720" y="400" width="140" height="140" as="geometry" />
        </mxCell>
        <mxCell id="761dnnyQ54j-Cl0NHfQN-18064" value="10" style="rounded=0;whiteSpace=wrap;html=1;fontSize=32;" parent="2yJXHjSfP-utzKxr89We-4" vertex="1">
          <mxGeometry x="860" y="400" width="100" height="100" as="geometry" />
        </mxCell>
        <mxCell id="761dnnyQ54j-Cl0NHfQN-18065" value="7" style="rounded=0;whiteSpace=wrap;html=1;fontSize=32;" parent="2yJXHjSfP-utzKxr89We-4" vertex="1">
          <mxGeometry x="960" y="430" width="70" height="70" as="geometry" />
        </mxCell>
        <mxCell id="761dnnyQ54j-Cl0NHfQN-18066" value="43" style="rounded=0;whiteSpace=wrap;html=1;fontSize=32;" parent="2yJXHjSfP-utzKxr89We-4" vertex="1">
          <mxGeometry x="960" width="430" height="430" as="geometry" />
        </mxCell>
        <mxCell id="761dnnyQ54j-Cl0NHfQN-18067" value="40" style="rounded=0;whiteSpace=wrap;html=1;fontSize=32;" parent="2yJXHjSfP-utzKxr89We-4" vertex="1">
          <mxGeometry x="560" width="400" height="400" as="geometry" />
        </mxCell>
        <mxCell id="2yJXHjSfP-utzKxr89We-7" value="" style="group;flipV=1;" vertex="1" connectable="0" parent="1">
          <mxGeometry x="1470" y="8330" width="1390" height="960" as="geometry" />
        </mxCell>
        <mxCell id="761dnnyQ54j-Cl0NHfQN-42940" value="39" style="rounded=0;whiteSpace=wrap;html=1;fontSize=32;" parent="2yJXHjSfP-utzKxr89We-7" vertex="1">
          <mxGeometry y="570" width="390" height="390" as="geometry" />
        </mxCell>
        <mxCell id="761dnnyQ54j-Cl0NHfQN-42941" value="21" style="rounded=0;whiteSpace=wrap;html=1;fontSize=32;" parent="2yJXHjSfP-utzKxr89We-7" vertex="1">
          <mxGeometry x="390" y="750" width="210" height="210" as="geometry" />
        </mxCell>
        <mxCell id="761dnnyQ54j-Cl0NHfQN-42942" value="24" style="rounded=0;whiteSpace=wrap;html=1;fontSize=32;" parent="2yJXHjSfP-utzKxr89We-7" vertex="1">
          <mxGeometry x="600" y="720" width="240" height="240" as="geometry" />
        </mxCell>
        <mxCell id="761dnnyQ54j-Cl0NHfQN-42943" value="18" style="rounded=0;whiteSpace=wrap;html=1;fontSize=32;" parent="2yJXHjSfP-utzKxr89We-7" vertex="1">
          <mxGeometry x="390" y="570" width="180" height="180" as="geometry" />
        </mxCell>
        <mxCell id="761dnnyQ54j-Cl0NHfQN-42944" value="3" style="rounded=0;whiteSpace=wrap;html=1;fontSize=32;" parent="2yJXHjSfP-utzKxr89We-7" vertex="1">
          <mxGeometry x="570" y="720" width="30" height="30" as="geometry" />
        </mxCell>
        <mxCell id="761dnnyQ54j-Cl0NHfQN-42945" value="29" style="rounded=0;whiteSpace=wrap;html=1;fontSize=32;" parent="2yJXHjSfP-utzKxr89We-7" vertex="1">
          <mxGeometry x="840" y="670" width="290" height="290" as="geometry" />
        </mxCell>
        <mxCell id="761dnnyQ54j-Cl0NHfQN-42946" value="26" style="rounded=0;whiteSpace=wrap;html=1;fontSize=32;" parent="2yJXHjSfP-utzKxr89We-7" vertex="1">
          <mxGeometry x="1130" y="700" width="260" height="260" as="geometry" />
        </mxCell>
        <mxCell id="761dnnyQ54j-Cl0NHfQN-42947" value="10" style="rounded=0;whiteSpace=wrap;html=1;fontSize=32;" parent="2yJXHjSfP-utzKxr89We-7" vertex="1">
          <mxGeometry x="1130" y="600" width="100" height="100" as="geometry" />
        </mxCell>
        <mxCell id="761dnnyQ54j-Cl0NHfQN-42948" value="16" style="rounded=0;whiteSpace=wrap;html=1;fontSize=32;" parent="2yJXHjSfP-utzKxr89We-7" vertex="1">
          <mxGeometry x="1230" y="540" width="160" height="160" as="geometry" />
        </mxCell>
        <mxCell id="761dnnyQ54j-Cl0NHfQN-42949" value="27" style="rounded=0;whiteSpace=wrap;html=1;fontSize=32;" parent="2yJXHjSfP-utzKxr89We-7" vertex="1">
          <mxGeometry x="570" y="450" width="270" height="270" as="geometry" />
        </mxCell>
        <mxCell id="761dnnyQ54j-Cl0NHfQN-42950" value="22" style="rounded=0;whiteSpace=wrap;html=1;fontSize=32;" parent="2yJXHjSfP-utzKxr89We-7" vertex="1">
          <mxGeometry x="840" y="450" width="220" height="220" as="geometry" />
        </mxCell>
        <mxCell id="761dnnyQ54j-Cl0NHfQN-42951" value="7" style="rounded=0;whiteSpace=wrap;html=1;fontSize=32;" parent="2yJXHjSfP-utzKxr89We-7" vertex="1">
          <mxGeometry x="1060" y="600" width="70" height="70" as="geometry" />
        </mxCell>
        <mxCell id="761dnnyQ54j-Cl0NHfQN-42952" value="11" style="rounded=0;whiteSpace=wrap;html=1;fontSize=32;" parent="2yJXHjSfP-utzKxr89We-7" vertex="1">
          <mxGeometry x="1060" y="490" width="110" height="110" as="geometry" />
        </mxCell>
        <mxCell id="761dnnyQ54j-Cl0NHfQN-42953" value="6" style="rounded=0;whiteSpace=wrap;html=1;fontSize=32;" parent="2yJXHjSfP-utzKxr89We-7" vertex="1">
          <mxGeometry x="1170" y="540" width="60" height="60" as="geometry" />
        </mxCell>
        <mxCell id="761dnnyQ54j-Cl0NHfQN-42954" value="5" style="rounded=0;whiteSpace=wrap;html=1;fontSize=32;" parent="2yJXHjSfP-utzKxr89We-7" vertex="1">
          <mxGeometry x="1170" y="490" width="50" height="50" as="geometry" />
        </mxCell>
        <mxCell id="761dnnyQ54j-Cl0NHfQN-42955" value="17" style="rounded=0;whiteSpace=wrap;html=1;fontSize=32;" parent="2yJXHjSfP-utzKxr89We-7" vertex="1">
          <mxGeometry x="1220" y="370" width="170" height="170" as="geometry" />
        </mxCell>
        <mxCell id="761dnnyQ54j-Cl0NHfQN-42956" value="4" style="rounded=0;whiteSpace=wrap;html=1;fontSize=32;" parent="2yJXHjSfP-utzKxr89We-7" vertex="1">
          <mxGeometry x="1060" y="450" width="40" height="40" as="geometry" />
        </mxCell>
        <mxCell id="761dnnyQ54j-Cl0NHfQN-42957" value="12" style="rounded=0;whiteSpace=wrap;html=1;fontSize=32;" parent="2yJXHjSfP-utzKxr89We-7" vertex="1">
          <mxGeometry x="1100" y="370" width="120" height="120" as="geometry" />
        </mxCell>
        <mxCell id="761dnnyQ54j-Cl0NHfQN-42958" value="57" style="rounded=0;whiteSpace=wrap;html=1;fontSize=32;" parent="2yJXHjSfP-utzKxr89We-7" vertex="1">
          <mxGeometry width="570" height="570" as="geometry" />
        </mxCell>
        <mxCell id="761dnnyQ54j-Cl0NHfQN-42959" value="45" style="rounded=0;whiteSpace=wrap;html=1;fontSize=32;" parent="2yJXHjSfP-utzKxr89We-7" vertex="1">
          <mxGeometry x="570" width="450" height="450" as="geometry" />
        </mxCell>
        <mxCell id="761dnnyQ54j-Cl0NHfQN-42960" value="8" style="rounded=0;whiteSpace=wrap;html=1;fontSize=32;" parent="2yJXHjSfP-utzKxr89We-7" vertex="1">
          <mxGeometry x="1020" y="370" width="80" height="80" as="geometry" />
        </mxCell>
        <mxCell id="761dnnyQ54j-Cl0NHfQN-42961" value="37" style="rounded=0;whiteSpace=wrap;html=1;fontSize=32;" parent="2yJXHjSfP-utzKxr89We-7" vertex="1">
          <mxGeometry x="1020" width="370" height="370" as="geometry" />
        </mxCell>
        <mxCell id="2yJXHjSfP-utzKxr89We-8" value="" style="group;flipV=1;" vertex="1" connectable="0" parent="1">
          <mxGeometry x="1510" y="9430" width="1390" height="1390" as="geometry" />
        </mxCell>
        <mxCell id="761dnnyQ54j-Cl0NHfQN-44362" value="33" style="rounded=0;whiteSpace=wrap;html=1;fontSize=32;" parent="2yJXHjSfP-utzKxr89We-8" vertex="1">
          <mxGeometry y="1060" width="330" height="330" as="geometry" />
        </mxCell>
        <mxCell id="761dnnyQ54j-Cl0NHfQN-44363" value="28" style="rounded=0;whiteSpace=wrap;html=1;fontSize=32;" parent="2yJXHjSfP-utzKxr89We-8" vertex="1">
          <mxGeometry x="330" y="1110" width="280" height="280" as="geometry" />
        </mxCell>
        <mxCell id="761dnnyQ54j-Cl0NHfQN-44364" value="32" style="rounded=0;whiteSpace=wrap;html=1;fontSize=32;" parent="2yJXHjSfP-utzKxr89We-8" vertex="1">
          <mxGeometry x="610" y="1070" width="320" height="320" as="geometry" />
        </mxCell>
        <mxCell id="761dnnyQ54j-Cl0NHfQN-44365" value="12" style="rounded=0;whiteSpace=wrap;html=1;fontSize=32;" parent="2yJXHjSfP-utzKxr89We-8" vertex="1">
          <mxGeometry x="330" y="990" width="120" height="120" as="geometry" />
        </mxCell>
        <mxCell id="761dnnyQ54j-Cl0NHfQN-44366" value="16" style="rounded=0;whiteSpace=wrap;html=1;fontSize=32;" parent="2yJXHjSfP-utzKxr89We-8" vertex="1">
          <mxGeometry x="450" y="950" width="160" height="160" as="geometry" />
        </mxCell>
        <mxCell id="761dnnyQ54j-Cl0NHfQN-44367" value="26" style="rounded=0;whiteSpace=wrap;html=1;fontSize=32;" parent="2yJXHjSfP-utzKxr89We-8" vertex="1">
          <mxGeometry y="800" width="260" height="260" as="geometry" />
        </mxCell>
        <mxCell id="761dnnyQ54j-Cl0NHfQN-44368" value="7" style="rounded=0;whiteSpace=wrap;html=1;fontSize=32;" parent="2yJXHjSfP-utzKxr89We-8" vertex="1">
          <mxGeometry x="260" y="990" width="70" height="70" as="geometry" />
        </mxCell>
        <mxCell id="761dnnyQ54j-Cl0NHfQN-44369" value="19" style="rounded=0;whiteSpace=wrap;html=1;fontSize=32;" parent="2yJXHjSfP-utzKxr89We-8" vertex="1">
          <mxGeometry x="260" y="800" width="190" height="190" as="geometry" />
        </mxCell>
        <mxCell id="761dnnyQ54j-Cl0NHfQN-44370" value="24" style="rounded=0;whiteSpace=wrap;html=1;fontSize=32;" parent="2yJXHjSfP-utzKxr89We-8" vertex="1">
          <mxGeometry x="930" y="1150" width="240" height="240" as="geometry" />
        </mxCell>
        <mxCell id="761dnnyQ54j-Cl0NHfQN-44371" value="22" style="rounded=0;whiteSpace=wrap;html=1;fontSize=32;" parent="2yJXHjSfP-utzKxr89We-8" vertex="1">
          <mxGeometry x="1170" y="1170" width="220" height="220" as="geometry" />
        </mxCell>
        <mxCell id="761dnnyQ54j-Cl0NHfQN-44372" value="2" style="rounded=0;whiteSpace=wrap;html=1;fontSize=32;" parent="2yJXHjSfP-utzKxr89We-8" vertex="1">
          <mxGeometry x="1170" y="1150" width="20" height="20" as="geometry" />
        </mxCell>
        <mxCell id="761dnnyQ54j-Cl0NHfQN-44373" value="20" style="rounded=0;whiteSpace=wrap;html=1;fontSize=32;" parent="2yJXHjSfP-utzKxr89We-8" vertex="1">
          <mxGeometry x="1190" y="970" width="200" height="200" as="geometry" />
        </mxCell>
        <mxCell id="761dnnyQ54j-Cl0NHfQN-44374" value="8" style="rounded=0;whiteSpace=wrap;html=1;fontSize=32;" parent="2yJXHjSfP-utzKxr89We-8" vertex="1">
          <mxGeometry x="930" y="1070" width="80" height="80" as="geometry" />
        </mxCell>
        <mxCell id="761dnnyQ54j-Cl0NHfQN-44375" value="18" style="rounded=0;whiteSpace=wrap;html=1;fontSize=32;" parent="2yJXHjSfP-utzKxr89We-8" vertex="1">
          <mxGeometry x="1010" y="970" width="180" height="180" as="geometry" />
        </mxCell>
        <mxCell id="761dnnyQ54j-Cl0NHfQN-44376" value="13" style="rounded=0;whiteSpace=wrap;html=1;fontSize=32;" parent="2yJXHjSfP-utzKxr89We-8" vertex="1">
          <mxGeometry x="610" y="940" width="130" height="130" as="geometry" />
        </mxCell>
        <mxCell id="761dnnyQ54j-Cl0NHfQN-44377" value="15" style="rounded=0;whiteSpace=wrap;html=1;fontSize=32;" parent="2yJXHjSfP-utzKxr89We-8" vertex="1">
          <mxGeometry x="450" y="800" width="150" height="150" as="geometry" />
        </mxCell>
        <mxCell id="761dnnyQ54j-Cl0NHfQN-44378" value="1" style="rounded=0;whiteSpace=wrap;html=1;fontSize=32;" parent="2yJXHjSfP-utzKxr89We-8" vertex="1">
          <mxGeometry x="600" y="940" width="10" height="10" as="geometry" />
        </mxCell>
        <mxCell id="761dnnyQ54j-Cl0NHfQN-44379" value="27" style="rounded=0;whiteSpace=wrap;html=1;fontSize=32;" parent="2yJXHjSfP-utzKxr89We-8" vertex="1">
          <mxGeometry x="740" y="800" width="270" height="270" as="geometry" />
        </mxCell>
        <mxCell id="761dnnyQ54j-Cl0NHfQN-44380" value="14" style="rounded=0;whiteSpace=wrap;html=1;fontSize=32;" parent="2yJXHjSfP-utzKxr89We-8" vertex="1">
          <mxGeometry x="600" y="800" width="140" height="140" as="geometry" />
        </mxCell>
        <mxCell id="761dnnyQ54j-Cl0NHfQN-44381" value="38" style="rounded=0;whiteSpace=wrap;html=1;fontSize=32;" parent="2yJXHjSfP-utzKxr89We-8" vertex="1">
          <mxGeometry x="1010" y="590" width="380" height="380" as="geometry" />
        </mxCell>
        <mxCell id="761dnnyQ54j-Cl0NHfQN-44382" value="80" style="rounded=0;whiteSpace=wrap;html=1;fontSize=32;" parent="2yJXHjSfP-utzKxr89We-8" vertex="1">
          <mxGeometry width="800" height="800" as="geometry" />
        </mxCell>
        <mxCell id="761dnnyQ54j-Cl0NHfQN-44383" value="21" style="rounded=0;whiteSpace=wrap;html=1;fontSize=32;" parent="2yJXHjSfP-utzKxr89We-8" vertex="1">
          <mxGeometry x="800" y="590" width="210" height="210" as="geometry" />
        </mxCell>
        <mxCell id="761dnnyQ54j-Cl0NHfQN-44384" value="59" style="rounded=0;whiteSpace=wrap;html=1;fontSize=32;" parent="2yJXHjSfP-utzKxr89We-8" vertex="1">
          <mxGeometry x="800" width="590" height="590" as="geometry" />
        </mxCell>
        <mxCell id="2yJXHjSfP-utzKxr89We-9" value="" style="group;flipV=1;" vertex="1" connectable="0" parent="1">
          <mxGeometry x="1490" y="10980" width="1390" height="1000" as="geometry" />
        </mxCell>
        <mxCell id="761dnnyQ54j-Cl0NHfQN-44530" value="45" style="rounded=0;whiteSpace=wrap;html=1;fontSize=32;" parent="2yJXHjSfP-utzKxr89We-9" vertex="1">
          <mxGeometry y="550" width="450" height="450" as="geometry" />
        </mxCell>
        <mxCell id="761dnnyQ54j-Cl0NHfQN-44531" value="35" style="rounded=0;whiteSpace=wrap;html=1;fontSize=32;" parent="2yJXHjSfP-utzKxr89We-9" vertex="1">
          <mxGeometry x="450" y="650" width="350" height="350" as="geometry" />
        </mxCell>
        <mxCell id="761dnnyQ54j-Cl0NHfQN-44532" value="33" style="rounded=0;whiteSpace=wrap;html=1;fontSize=32;" parent="2yJXHjSfP-utzKxr89We-9" vertex="1">
          <mxGeometry x="800" y="670" width="330" height="330" as="geometry" />
        </mxCell>
        <mxCell id="761dnnyQ54j-Cl0NHfQN-44533" value="26" style="rounded=0;whiteSpace=wrap;html=1;fontSize=32;" parent="2yJXHjSfP-utzKxr89We-9" vertex="1">
          <mxGeometry x="1130" y="740" width="260" height="260" as="geometry" />
        </mxCell>
        <mxCell id="761dnnyQ54j-Cl0NHfQN-44534" value="7" style="rounded=0;whiteSpace=wrap;html=1;fontSize=32;" parent="2yJXHjSfP-utzKxr89We-9" vertex="1">
          <mxGeometry x="1130" y="670" width="70" height="70" as="geometry" />
        </mxCell>
        <mxCell id="761dnnyQ54j-Cl0NHfQN-44535" value="19" style="rounded=0;whiteSpace=wrap;html=1;fontSize=32;" parent="2yJXHjSfP-utzKxr89We-9" vertex="1">
          <mxGeometry x="1200" y="550" width="190" height="190" as="geometry" />
        </mxCell>
        <mxCell id="761dnnyQ54j-Cl0NHfQN-44536" value="27" style="rounded=0;whiteSpace=wrap;html=1;fontSize=32;" parent="2yJXHjSfP-utzKxr89We-9" vertex="1">
          <mxGeometry x="800" y="400" width="270" height="270" as="geometry" />
        </mxCell>
        <mxCell id="761dnnyQ54j-Cl0NHfQN-44537" value="13" style="rounded=0;whiteSpace=wrap;html=1;fontSize=32;" parent="2yJXHjSfP-utzKxr89We-9" vertex="1">
          <mxGeometry x="1070" y="540" width="130" height="130" as="geometry" />
        </mxCell>
        <mxCell id="761dnnyQ54j-Cl0NHfQN-44538" value="1" style="rounded=0;whiteSpace=wrap;html=1;fontSize=32;" parent="2yJXHjSfP-utzKxr89We-9" vertex="1">
          <mxGeometry x="1200" y="540" width="10" height="10" as="geometry" />
        </mxCell>
        <mxCell id="761dnnyQ54j-Cl0NHfQN-44539" value="18" style="rounded=0;whiteSpace=wrap;html=1;fontSize=32;" parent="2yJXHjSfP-utzKxr89We-9" vertex="1">
          <mxGeometry x="1210" y="370" width="180" height="180" as="geometry" />
        </mxCell>
        <mxCell id="761dnnyQ54j-Cl0NHfQN-44540" value="14" style="rounded=0;whiteSpace=wrap;html=1;fontSize=32;" parent="2yJXHjSfP-utzKxr89We-9" vertex="1">
          <mxGeometry x="1070" y="400" width="140" height="140" as="geometry" />
        </mxCell>
        <mxCell id="761dnnyQ54j-Cl0NHfQN-44541" value="10" style="rounded=0;whiteSpace=wrap;html=1;fontSize=32;" parent="2yJXHjSfP-utzKxr89We-9" vertex="1">
          <mxGeometry x="450" y="550" width="100" height="100" as="geometry" />
        </mxCell>
        <mxCell id="761dnnyQ54j-Cl0NHfQN-44542" value="25" style="rounded=0;whiteSpace=wrap;html=1;fontSize=32;" parent="2yJXHjSfP-utzKxr89We-9" vertex="1">
          <mxGeometry x="550" y="400" width="250" height="250" as="geometry" />
        </mxCell>
        <mxCell id="761dnnyQ54j-Cl0NHfQN-44543" value="55" style="rounded=0;whiteSpace=wrap;html=1;fontSize=32;" parent="2yJXHjSfP-utzKxr89We-9" vertex="1">
          <mxGeometry width="550" height="550" as="geometry" />
        </mxCell>
        <mxCell id="761dnnyQ54j-Cl0NHfQN-44544" value="40" style="rounded=0;whiteSpace=wrap;html=1;fontSize=32;" parent="2yJXHjSfP-utzKxr89We-9" vertex="1">
          <mxGeometry x="550" width="400" height="400" as="geometry" />
        </mxCell>
        <mxCell id="761dnnyQ54j-Cl0NHfQN-44545" value="23" style="rounded=0;whiteSpace=wrap;html=1;fontSize=32;" parent="2yJXHjSfP-utzKxr89We-9" vertex="1">
          <mxGeometry x="950" y="170" width="230" height="230" as="geometry" />
        </mxCell>
        <mxCell id="761dnnyQ54j-Cl0NHfQN-44546" value="3" style="rounded=0;whiteSpace=wrap;html=1;fontSize=32;" parent="2yJXHjSfP-utzKxr89We-9" vertex="1">
          <mxGeometry x="1180" y="370" width="30" height="30" as="geometry" />
        </mxCell>
        <mxCell id="761dnnyQ54j-Cl0NHfQN-44547" value="21" style="rounded=0;whiteSpace=wrap;html=1;fontSize=32;" parent="2yJXHjSfP-utzKxr89We-9" vertex="1">
          <mxGeometry x="1180" y="160" width="210" height="210" as="geometry" />
        </mxCell>
        <mxCell id="761dnnyQ54j-Cl0NHfQN-44548" value="17" style="rounded=0;whiteSpace=wrap;html=1;fontSize=32;" parent="2yJXHjSfP-utzKxr89We-9" vertex="1">
          <mxGeometry x="950" width="170" height="170" as="geometry" />
        </mxCell>
        <mxCell id="761dnnyQ54j-Cl0NHfQN-44549" value="6" style="rounded=0;whiteSpace=wrap;html=1;fontSize=32;" parent="2yJXHjSfP-utzKxr89We-9" vertex="1">
          <mxGeometry x="1120" y="110" width="60" height="60" as="geometry" />
        </mxCell>
        <mxCell id="761dnnyQ54j-Cl0NHfQN-44550" value="5" style="rounded=0;whiteSpace=wrap;html=1;fontSize=32;" parent="2yJXHjSfP-utzKxr89We-9" vertex="1">
          <mxGeometry x="1180" y="110" width="50" height="50" as="geometry" />
        </mxCell>
        <mxCell id="761dnnyQ54j-Cl0NHfQN-44551" value="16" style="rounded=0;whiteSpace=wrap;html=1;fontSize=32;" parent="2yJXHjSfP-utzKxr89We-9" vertex="1">
          <mxGeometry x="1230" width="160" height="160" as="geometry" />
        </mxCell>
        <mxCell id="761dnnyQ54j-Cl0NHfQN-44552" value="11" style="rounded=0;whiteSpace=wrap;html=1;fontSize=32;" parent="2yJXHjSfP-utzKxr89We-9" vertex="1">
          <mxGeometry x="1120" width="110" height="110" as="geometry" />
        </mxCell>
        <mxCell id="2yJXHjSfP-utzKxr89We-10" value="" style="group;flipV=1;" vertex="1" connectable="0" parent="1">
          <mxGeometry x="1490" y="12080" width="1390" height="1240" as="geometry" />
        </mxCell>
        <mxCell id="761dnnyQ54j-Cl0NHfQN-44602" value="53" style="rounded=0;whiteSpace=wrap;html=1;fontSize=32;" parent="2yJXHjSfP-utzKxr89We-10" vertex="1">
          <mxGeometry y="710" width="530" height="530" as="geometry" />
        </mxCell>
        <mxCell id="761dnnyQ54j-Cl0NHfQN-44603" value="19" style="rounded=0;whiteSpace=wrap;html=1;fontSize=32;" parent="2yJXHjSfP-utzKxr89We-10" vertex="1">
          <mxGeometry x="530" y="1050" width="190" height="190" as="geometry" />
        </mxCell>
        <mxCell id="761dnnyQ54j-Cl0NHfQN-44604" value="14" style="rounded=0;whiteSpace=wrap;html=1;fontSize=32;" parent="2yJXHjSfP-utzKxr89We-10" vertex="1">
          <mxGeometry x="720" y="1100" width="140" height="140" as="geometry" />
        </mxCell>
        <mxCell id="761dnnyQ54j-Cl0NHfQN-44605" value="24" style="rounded=0;whiteSpace=wrap;html=1;fontSize=32;" parent="2yJXHjSfP-utzKxr89We-10" vertex="1">
          <mxGeometry x="860" y="1000" width="240" height="240" as="geometry" />
        </mxCell>
        <mxCell id="761dnnyQ54j-Cl0NHfQN-44606" value="8" style="rounded=0;whiteSpace=wrap;html=1;fontSize=32;" parent="2yJXHjSfP-utzKxr89We-10" vertex="1">
          <mxGeometry x="720" y="1020" width="80" height="80" as="geometry" />
        </mxCell>
        <mxCell id="761dnnyQ54j-Cl0NHfQN-44607" value="6" style="rounded=0;whiteSpace=wrap;html=1;fontSize=32;" parent="2yJXHjSfP-utzKxr89We-10" vertex="1">
          <mxGeometry x="800" y="1040" width="60" height="60" as="geometry" />
        </mxCell>
        <mxCell id="761dnnyQ54j-Cl0NHfQN-44608" value="2" style="rounded=0;whiteSpace=wrap;html=1;fontSize=32;" parent="2yJXHjSfP-utzKxr89We-10" vertex="1">
          <mxGeometry x="800" y="1020" width="20" height="20" as="geometry" />
        </mxCell>
        <mxCell id="761dnnyQ54j-Cl0NHfQN-44609" value="4" style="rounded=0;whiteSpace=wrap;html=1;fontSize=32;" parent="2yJXHjSfP-utzKxr89We-10" vertex="1">
          <mxGeometry x="820" y="1000" width="40" height="40" as="geometry" />
        </mxCell>
        <mxCell id="761dnnyQ54j-Cl0NHfQN-44610" value="16" style="rounded=0;whiteSpace=wrap;html=1;fontSize=32;" parent="2yJXHjSfP-utzKxr89We-10" vertex="1">
          <mxGeometry x="530" y="890" width="160" height="160" as="geometry" />
        </mxCell>
        <mxCell id="761dnnyQ54j-Cl0NHfQN-44611" value="3" style="rounded=0;whiteSpace=wrap;html=1;fontSize=32;" parent="2yJXHjSfP-utzKxr89We-10" vertex="1">
          <mxGeometry x="690" y="1020" width="30" height="30" as="geometry" />
        </mxCell>
        <mxCell id="761dnnyQ54j-Cl0NHfQN-44612" value="13" style="rounded=0;whiteSpace=wrap;html=1;fontSize=32;" parent="2yJXHjSfP-utzKxr89We-10" vertex="1">
          <mxGeometry x="690" y="890" width="130" height="130" as="geometry" />
        </mxCell>
        <mxCell id="761dnnyQ54j-Cl0NHfQN-44613" value="29" style="rounded=0;whiteSpace=wrap;html=1;fontSize=32;" parent="2yJXHjSfP-utzKxr89We-10" vertex="1">
          <mxGeometry x="1100" y="950" width="290" height="290" as="geometry" />
        </mxCell>
        <mxCell id="761dnnyQ54j-Cl0NHfQN-44614" value="11" style="rounded=0;whiteSpace=wrap;html=1;fontSize=32;" parent="2yJXHjSfP-utzKxr89We-10" vertex="1">
          <mxGeometry x="820" y="890" width="110" height="110" as="geometry" />
        </mxCell>
        <mxCell id="761dnnyQ54j-Cl0NHfQN-44615" value="12" style="rounded=0;whiteSpace=wrap;html=1;fontSize=32;" parent="2yJXHjSfP-utzKxr89We-10" vertex="1">
          <mxGeometry x="930" y="880" width="120" height="120" as="geometry" />
        </mxCell>
        <mxCell id="761dnnyQ54j-Cl0NHfQN-44616" value="5" style="rounded=0;whiteSpace=wrap;html=1;fontSize=32;" parent="2yJXHjSfP-utzKxr89We-10" vertex="1">
          <mxGeometry x="1050" y="950" width="50" height="50" as="geometry" />
        </mxCell>
        <mxCell id="761dnnyQ54j-Cl0NHfQN-44617" value="7" style="rounded=0;whiteSpace=wrap;html=1;fontSize=32;" parent="2yJXHjSfP-utzKxr89We-10" vertex="1">
          <mxGeometry x="1050" y="880" width="70" height="70" as="geometry" />
        </mxCell>
        <mxCell id="761dnnyQ54j-Cl0NHfQN-44618" value="27" style="rounded=0;whiteSpace=wrap;html=1;fontSize=32;" parent="2yJXHjSfP-utzKxr89We-10" vertex="1">
          <mxGeometry x="1120" y="680" width="270" height="270" as="geometry" />
        </mxCell>
        <mxCell id="761dnnyQ54j-Cl0NHfQN-44619" value="18" style="rounded=0;whiteSpace=wrap;html=1;fontSize=32;" parent="2yJXHjSfP-utzKxr89We-10" vertex="1">
          <mxGeometry x="530" y="710" width="180" height="180" as="geometry" />
        </mxCell>
        <mxCell id="761dnnyQ54j-Cl0NHfQN-44620" value="21" style="rounded=0;whiteSpace=wrap;html=1;fontSize=32;" parent="2yJXHjSfP-utzKxr89We-10" vertex="1">
          <mxGeometry x="710" y="680" width="210" height="210" as="geometry" />
        </mxCell>
        <mxCell id="761dnnyQ54j-Cl0NHfQN-44621" value="1" style="rounded=0;whiteSpace=wrap;html=1;fontSize=32;" parent="2yJXHjSfP-utzKxr89We-10" vertex="1">
          <mxGeometry x="920" y="880" width="10" height="10" as="geometry" />
        </mxCell>
        <mxCell id="761dnnyQ54j-Cl0NHfQN-44622" value="20" style="rounded=0;whiteSpace=wrap;html=1;fontSize=32;" parent="2yJXHjSfP-utzKxr89We-10" vertex="1">
          <mxGeometry x="920" y="680" width="200" height="200" as="geometry" />
        </mxCell>
        <mxCell id="761dnnyQ54j-Cl0NHfQN-44623" value="71" style="rounded=0;whiteSpace=wrap;html=1;fontSize=32;" parent="2yJXHjSfP-utzKxr89We-10" vertex="1">
          <mxGeometry width="710" height="710" as="geometry" />
        </mxCell>
        <mxCell id="761dnnyQ54j-Cl0NHfQN-44624" value="68" style="rounded=0;whiteSpace=wrap;html=1;fontSize=32;" parent="2yJXHjSfP-utzKxr89We-10" vertex="1">
          <mxGeometry x="710" width="680" height="680" as="geometry" />
        </mxCell>
        <mxCell id="2yJXHjSfP-utzKxr89We-11" value="" style="group;flipV=1;" vertex="1" connectable="0" parent="1">
          <mxGeometry x="1490" y="13400" width="1390" height="1360" as="geometry" />
        </mxCell>
        <mxCell id="761dnnyQ54j-Cl0NHfQN-46426" value="37" style="rounded=0;whiteSpace=wrap;html=1;fontSize=32;" parent="2yJXHjSfP-utzKxr89We-11" vertex="1">
          <mxGeometry y="990" width="370" height="370" as="geometry" />
        </mxCell>
        <mxCell id="761dnnyQ54j-Cl0NHfQN-46427" value="29" style="rounded=0;whiteSpace=wrap;html=1;fontSize=32;" parent="2yJXHjSfP-utzKxr89We-11" vertex="1">
          <mxGeometry x="370" y="1070" width="290" height="290" as="geometry" />
        </mxCell>
        <mxCell id="761dnnyQ54j-Cl0NHfQN-46428" value="27" style="rounded=0;whiteSpace=wrap;html=1;fontSize=32;" parent="2yJXHjSfP-utzKxr89We-11" vertex="1">
          <mxGeometry x="660" y="1090" width="270" height="270" as="geometry" />
        </mxCell>
        <mxCell id="761dnnyQ54j-Cl0NHfQN-46429" value="46" style="rounded=0;whiteSpace=wrap;html=1;fontSize=32;" parent="2yJXHjSfP-utzKxr89We-11" vertex="1">
          <mxGeometry x="930" y="900" width="460" height="460" as="geometry" />
        </mxCell>
        <mxCell id="761dnnyQ54j-Cl0NHfQN-46430" value="2" style="rounded=0;whiteSpace=wrap;html=1;fontSize=32;" parent="2yJXHjSfP-utzKxr89We-11" vertex="1">
          <mxGeometry x="660" y="1070" width="20" height="20" as="geometry" />
        </mxCell>
        <mxCell id="761dnnyQ54j-Cl0NHfQN-46431" value="25" style="rounded=0;whiteSpace=wrap;html=1;fontSize=32;" parent="2yJXHjSfP-utzKxr89We-11" vertex="1">
          <mxGeometry x="680" y="840" width="250" height="250" as="geometry" />
        </mxCell>
        <mxCell id="761dnnyQ54j-Cl0NHfQN-46432" value="8" style="rounded=0;whiteSpace=wrap;html=1;fontSize=32;" parent="2yJXHjSfP-utzKxr89We-11" vertex="1">
          <mxGeometry x="370" y="990" width="80" height="80" as="geometry" />
        </mxCell>
        <mxCell id="761dnnyQ54j-Cl0NHfQN-46433" value="23" style="rounded=0;whiteSpace=wrap;html=1;fontSize=32;" parent="2yJXHjSfP-utzKxr89We-11" vertex="1">
          <mxGeometry x="450" y="840" width="230" height="230" as="geometry" />
        </mxCell>
        <mxCell id="761dnnyQ54j-Cl0NHfQN-46434" value="45" style="rounded=0;whiteSpace=wrap;html=1;fontSize=32;" parent="2yJXHjSfP-utzKxr89We-11" vertex="1">
          <mxGeometry y="540" width="450" height="450" as="geometry" />
        </mxCell>
        <mxCell id="761dnnyQ54j-Cl0NHfQN-46435" value="6" style="rounded=0;whiteSpace=wrap;html=1;fontSize=32;" parent="2yJXHjSfP-utzKxr89We-11" vertex="1">
          <mxGeometry x="930" y="840" width="60" height="60" as="geometry" />
        </mxCell>
        <mxCell id="761dnnyQ54j-Cl0NHfQN-46436" value="40" style="rounded=0;whiteSpace=wrap;html=1;fontSize=32;" parent="2yJXHjSfP-utzKxr89We-11" vertex="1">
          <mxGeometry x="990" y="500" width="400" height="400" as="geometry" />
        </mxCell>
        <mxCell id="761dnnyQ54j-Cl0NHfQN-46437" value="30" style="rounded=0;whiteSpace=wrap;html=1;fontSize=32;" parent="2yJXHjSfP-utzKxr89We-11" vertex="1">
          <mxGeometry x="450" y="540" width="300" height="300" as="geometry" />
        </mxCell>
        <mxCell id="761dnnyQ54j-Cl0NHfQN-46438" value="24" style="rounded=0;whiteSpace=wrap;html=1;fontSize=32;" parent="2yJXHjSfP-utzKxr89We-11" vertex="1">
          <mxGeometry x="750" y="600" width="240" height="240" as="geometry" />
        </mxCell>
        <mxCell id="761dnnyQ54j-Cl0NHfQN-46439" value="5" style="rounded=0;whiteSpace=wrap;html=1;fontSize=32;" parent="2yJXHjSfP-utzKxr89We-11" vertex="1">
          <mxGeometry x="750" y="550" width="50" height="50" as="geometry" />
        </mxCell>
        <mxCell id="761dnnyQ54j-Cl0NHfQN-46440" value="9" style="rounded=0;whiteSpace=wrap;html=1;fontSize=32;" parent="2yJXHjSfP-utzKxr89We-11" vertex="1">
          <mxGeometry x="800" y="510" width="90" height="90" as="geometry" />
        </mxCell>
        <mxCell id="761dnnyQ54j-Cl0NHfQN-46441" value="1" style="rounded=0;whiteSpace=wrap;html=1;fontSize=32;" parent="2yJXHjSfP-utzKxr89We-11" vertex="1">
          <mxGeometry x="750" y="540" width="10" height="10" as="geometry" />
        </mxCell>
        <mxCell id="761dnnyQ54j-Cl0NHfQN-46442" value="4" style="rounded=0;whiteSpace=wrap;html=1;fontSize=32;" parent="2yJXHjSfP-utzKxr89We-11" vertex="1">
          <mxGeometry x="760" y="510" width="40" height="40" as="geometry" />
        </mxCell>
        <mxCell id="761dnnyQ54j-Cl0NHfQN-46443" value="10" style="rounded=0;whiteSpace=wrap;html=1;fontSize=32;" parent="2yJXHjSfP-utzKxr89We-11" vertex="1">
          <mxGeometry x="890" y="500" width="100" height="100" as="geometry" />
        </mxCell>
        <mxCell id="761dnnyQ54j-Cl0NHfQN-46444" value="54" style="rounded=0;whiteSpace=wrap;html=1;fontSize=32;" parent="2yJXHjSfP-utzKxr89We-11" vertex="1">
          <mxGeometry width="540" height="540" as="geometry" />
        </mxCell>
        <mxCell id="761dnnyQ54j-Cl0NHfQN-46445" value="19" style="rounded=0;whiteSpace=wrap;html=1;fontSize=32;" parent="2yJXHjSfP-utzKxr89We-11" vertex="1">
          <mxGeometry x="540" y="350" width="190" height="190" as="geometry" />
        </mxCell>
        <mxCell id="761dnnyQ54j-Cl0NHfQN-46446" value="3" style="rounded=0;whiteSpace=wrap;html=1;fontSize=32;" parent="2yJXHjSfP-utzKxr89We-11" vertex="1">
          <mxGeometry x="730" y="510" width="30" height="30" as="geometry" />
        </mxCell>
        <mxCell id="761dnnyQ54j-Cl0NHfQN-46447" value="16" style="rounded=0;whiteSpace=wrap;html=1;fontSize=32;" parent="2yJXHjSfP-utzKxr89We-11" vertex="1">
          <mxGeometry x="730" y="350" width="160" height="160" as="geometry" />
        </mxCell>
        <mxCell id="761dnnyQ54j-Cl0NHfQN-46448" value="50" style="rounded=0;whiteSpace=wrap;html=1;fontSize=32;" parent="2yJXHjSfP-utzKxr89We-11" vertex="1">
          <mxGeometry x="890" width="500" height="500" as="geometry" />
        </mxCell>
        <mxCell id="761dnnyQ54j-Cl0NHfQN-46449" value="35" style="rounded=0;whiteSpace=wrap;html=1;fontSize=32;" parent="2yJXHjSfP-utzKxr89We-11" vertex="1">
          <mxGeometry x="540" width="350" height="350" as="geometry" />
        </mxCell>
        <mxCell id="2yJXHjSfP-utzKxr89We-12" value="" style="group;flipV=1;" vertex="1" connectable="0" parent="1">
          <mxGeometry x="1450" y="5490" width="1390" height="1160" as="geometry" />
        </mxCell>
        <mxCell id="761dnnyQ54j-Cl0NHfQN-42664" value="52" style="rounded=0;whiteSpace=wrap;html=1;fontSize=32;container=0;" parent="2yJXHjSfP-utzKxr89We-12" vertex="1">
          <mxGeometry y="640" width="520" height="520" as="geometry" />
        </mxCell>
        <mxCell id="761dnnyQ54j-Cl0NHfQN-42665" value="40" style="rounded=0;whiteSpace=wrap;html=1;fontSize=32;container=0;" parent="2yJXHjSfP-utzKxr89We-12" vertex="1">
          <mxGeometry x="520" y="760" width="400" height="400" as="geometry" />
        </mxCell>
        <mxCell id="761dnnyQ54j-Cl0NHfQN-42666" value="19" style="rounded=0;whiteSpace=wrap;html=1;fontSize=32;container=0;" parent="2yJXHjSfP-utzKxr89We-12" vertex="1">
          <mxGeometry x="920" y="970" width="190" height="190" as="geometry" />
        </mxCell>
        <mxCell id="761dnnyQ54j-Cl0NHfQN-42667" value="28" style="rounded=0;whiteSpace=wrap;html=1;fontSize=32;container=0;" parent="2yJXHjSfP-utzKxr89We-12" vertex="1">
          <mxGeometry x="1110" y="880" width="280" height="280" as="geometry" />
        </mxCell>
        <mxCell id="761dnnyQ54j-Cl0NHfQN-42668" value="10" style="rounded=0;whiteSpace=wrap;html=1;fontSize=32;container=0;" parent="2yJXHjSfP-utzKxr89We-12" vertex="1">
          <mxGeometry x="920" y="870" width="100" height="100" as="geometry" />
        </mxCell>
        <mxCell id="761dnnyQ54j-Cl0NHfQN-42669" value="9" style="rounded=0;whiteSpace=wrap;html=1;fontSize=32;container=0;" parent="2yJXHjSfP-utzKxr89We-12" vertex="1">
          <mxGeometry x="1020" y="880" width="90" height="90" as="geometry" />
        </mxCell>
        <mxCell id="761dnnyQ54j-Cl0NHfQN-42670" value="1" style="rounded=0;whiteSpace=wrap;html=1;fontSize=32;container=0;" parent="2yJXHjSfP-utzKxr89We-12" vertex="1">
          <mxGeometry x="1020" y="870" width="10" height="10" as="geometry" />
        </mxCell>
        <mxCell id="761dnnyQ54j-Cl0NHfQN-42671" value="36" style="rounded=0;whiteSpace=wrap;html=1;fontSize=32;container=0;" parent="2yJXHjSfP-utzKxr89We-12" vertex="1">
          <mxGeometry x="1030" y="520" width="360" height="360" as="geometry" />
        </mxCell>
        <mxCell id="761dnnyQ54j-Cl0NHfQN-42672" value="11" style="rounded=0;whiteSpace=wrap;html=1;fontSize=32;container=0;" parent="2yJXHjSfP-utzKxr89We-12" vertex="1">
          <mxGeometry x="920" y="760" width="110" height="110" as="geometry" />
        </mxCell>
        <mxCell id="761dnnyQ54j-Cl0NHfQN-42673" value="12" style="rounded=0;whiteSpace=wrap;html=1;fontSize=32;container=0;" parent="2yJXHjSfP-utzKxr89We-12" vertex="1">
          <mxGeometry x="520" y="640" width="120" height="120" as="geometry" />
        </mxCell>
        <mxCell id="761dnnyQ54j-Cl0NHfQN-42674" value="39" style="rounded=0;whiteSpace=wrap;html=1;fontSize=32;container=0;" parent="2yJXHjSfP-utzKxr89We-12" vertex="1">
          <mxGeometry x="640" y="370" width="390" height="390" as="geometry" />
        </mxCell>
        <mxCell id="761dnnyQ54j-Cl0NHfQN-42675" value="15" style="rounded=0;whiteSpace=wrap;html=1;fontSize=32;container=0;" parent="2yJXHjSfP-utzKxr89We-12" vertex="1">
          <mxGeometry x="1030" y="370" width="150" height="150" as="geometry" />
        </mxCell>
        <mxCell id="761dnnyQ54j-Cl0NHfQN-42676" value="21" style="rounded=0;whiteSpace=wrap;html=1;fontSize=32;container=0;" parent="2yJXHjSfP-utzKxr89We-12" vertex="1">
          <mxGeometry x="1180" y="310" width="210" height="210" as="geometry" />
        </mxCell>
        <mxCell id="761dnnyQ54j-Cl0NHfQN-42677" value="64" style="rounded=0;whiteSpace=wrap;html=1;fontSize=32;container=0;" parent="2yJXHjSfP-utzKxr89We-12" vertex="1">
          <mxGeometry width="640" height="640" as="geometry" />
        </mxCell>
        <mxCell id="761dnnyQ54j-Cl0NHfQN-42678" value="37" style="rounded=0;whiteSpace=wrap;html=1;fontSize=32;container=0;" parent="2yJXHjSfP-utzKxr89We-12" vertex="1">
          <mxGeometry x="640" width="370" height="370" as="geometry" />
        </mxCell>
        <mxCell id="761dnnyQ54j-Cl0NHfQN-42679" value="17" style="rounded=0;whiteSpace=wrap;html=1;fontSize=32;container=0;" parent="2yJXHjSfP-utzKxr89We-12" vertex="1">
          <mxGeometry x="1010" y="200" width="170" height="170" as="geometry" />
        </mxCell>
        <mxCell id="761dnnyQ54j-Cl0NHfQN-42680" value="8" style="rounded=0;whiteSpace=wrap;html=1;fontSize=32;container=0;" parent="2yJXHjSfP-utzKxr89We-12" vertex="1">
          <mxGeometry x="1180" y="230" width="80" height="80" as="geometry" />
        </mxCell>
        <mxCell id="761dnnyQ54j-Cl0NHfQN-42681" value="13" style="rounded=0;whiteSpace=wrap;html=1;fontSize=32;container=0;" parent="2yJXHjSfP-utzKxr89We-12" vertex="1">
          <mxGeometry x="1260" y="180" width="130" height="130" as="geometry" />
        </mxCell>
        <mxCell id="761dnnyQ54j-Cl0NHfQN-42682" value="3" style="rounded=0;whiteSpace=wrap;html=1;fontSize=32;container=0;" parent="2yJXHjSfP-utzKxr89We-12" vertex="1">
          <mxGeometry x="1180" y="200" width="30" height="30" as="geometry" />
        </mxCell>
        <mxCell id="761dnnyQ54j-Cl0NHfQN-42683" value="5" style="rounded=0;whiteSpace=wrap;html=1;fontSize=32;container=0;" parent="2yJXHjSfP-utzKxr89We-12" vertex="1">
          <mxGeometry x="1210" y="180" width="50" height="50" as="geometry" />
        </mxCell>
        <mxCell id="761dnnyQ54j-Cl0NHfQN-42684" value="20" style="rounded=0;whiteSpace=wrap;html=1;fontSize=32;container=0;" parent="2yJXHjSfP-utzKxr89We-12" vertex="1">
          <mxGeometry x="1010" width="200" height="200" as="geometry" />
        </mxCell>
        <mxCell id="761dnnyQ54j-Cl0NHfQN-42685" value="18" style="rounded=0;whiteSpace=wrap;html=1;fontSize=32;container=0;" parent="2yJXHjSfP-utzKxr89We-12" vertex="1">
          <mxGeometry x="1210" width="180" height="180" as="geometry" />
        </mxCell>
        <mxCell id="2yJXHjSfP-utzKxr89We-13" value="" style="group;flipV=1;" vertex="1" connectable="0" parent="1">
          <mxGeometry x="1490" y="6750" width="1390" height="1390" as="geometry" />
        </mxCell>
        <mxCell id="761dnnyQ54j-Cl0NHfQN-42779" value="30" style="rounded=0;whiteSpace=wrap;html=1;fontSize=32;container=0;" parent="2yJXHjSfP-utzKxr89We-13" vertex="1">
          <mxGeometry y="1090" width="300" height="300" as="geometry" />
        </mxCell>
        <mxCell id="761dnnyQ54j-Cl0NHfQN-42780" value="31" style="rounded=0;whiteSpace=wrap;html=1;fontSize=32;container=0;" parent="2yJXHjSfP-utzKxr89We-13" vertex="1">
          <mxGeometry x="300" y="1080" width="310" height="310" as="geometry" />
        </mxCell>
        <mxCell id="761dnnyQ54j-Cl0NHfQN-42781" value="29" style="rounded=0;whiteSpace=wrap;html=1;fontSize=32;container=0;" parent="2yJXHjSfP-utzKxr89We-13" vertex="1">
          <mxGeometry y="800" width="290" height="290" as="geometry" />
        </mxCell>
        <mxCell id="761dnnyQ54j-Cl0NHfQN-42782" value="1" style="rounded=0;whiteSpace=wrap;html=1;fontSize=32;container=0;" parent="2yJXHjSfP-utzKxr89We-13" vertex="1">
          <mxGeometry x="290" y="1080" width="10" height="10" as="geometry" />
        </mxCell>
        <mxCell id="761dnnyQ54j-Cl0NHfQN-42783" value="32" style="rounded=0;whiteSpace=wrap;html=1;fontSize=32;container=0;" parent="2yJXHjSfP-utzKxr89We-13" vertex="1">
          <mxGeometry x="610" y="1070" width="320" height="320" as="geometry" />
        </mxCell>
        <mxCell id="761dnnyQ54j-Cl0NHfQN-42784" value="28" style="rounded=0;whiteSpace=wrap;html=1;fontSize=32;container=0;" parent="2yJXHjSfP-utzKxr89We-13" vertex="1">
          <mxGeometry x="290" y="800" width="280" height="280" as="geometry" />
        </mxCell>
        <mxCell id="761dnnyQ54j-Cl0NHfQN-42785" value="4" style="rounded=0;whiteSpace=wrap;html=1;fontSize=32;container=0;" parent="2yJXHjSfP-utzKxr89We-13" vertex="1">
          <mxGeometry x="570" y="1040" width="40" height="40" as="geometry" />
        </mxCell>
        <mxCell id="761dnnyQ54j-Cl0NHfQN-42786" value="24" style="rounded=0;whiteSpace=wrap;html=1;fontSize=32;container=0;" parent="2yJXHjSfP-utzKxr89We-13" vertex="1">
          <mxGeometry x="930" y="1150" width="240" height="240" as="geometry" />
        </mxCell>
        <mxCell id="761dnnyQ54j-Cl0NHfQN-42787" value="22" style="rounded=0;whiteSpace=wrap;html=1;fontSize=32;container=0;" parent="2yJXHjSfP-utzKxr89We-13" vertex="1">
          <mxGeometry x="1170" y="1170" width="220" height="220" as="geometry" />
        </mxCell>
        <mxCell id="761dnnyQ54j-Cl0NHfQN-42788" value="2" style="rounded=0;whiteSpace=wrap;html=1;fontSize=32;container=0;" parent="2yJXHjSfP-utzKxr89We-13" vertex="1">
          <mxGeometry x="1170" y="1150" width="20" height="20" as="geometry" />
        </mxCell>
        <mxCell id="761dnnyQ54j-Cl0NHfQN-42789" value="20" style="rounded=0;whiteSpace=wrap;html=1;fontSize=32;container=0;" parent="2yJXHjSfP-utzKxr89We-13" vertex="1">
          <mxGeometry x="1190" y="970" width="200" height="200" as="geometry" />
        </mxCell>
        <mxCell id="761dnnyQ54j-Cl0NHfQN-42790" value="8" style="rounded=0;whiteSpace=wrap;html=1;fontSize=32;container=0;" parent="2yJXHjSfP-utzKxr89We-13" vertex="1">
          <mxGeometry x="930" y="1070" width="80" height="80" as="geometry" />
        </mxCell>
        <mxCell id="761dnnyQ54j-Cl0NHfQN-42791" value="18" style="rounded=0;whiteSpace=wrap;html=1;fontSize=32;container=0;" parent="2yJXHjSfP-utzKxr89We-13" vertex="1">
          <mxGeometry x="1010" y="970" width="180" height="180" as="geometry" />
        </mxCell>
        <mxCell id="761dnnyQ54j-Cl0NHfQN-42792" value="3" style="rounded=0;whiteSpace=wrap;html=1;fontSize=32;container=0;" parent="2yJXHjSfP-utzKxr89We-13" vertex="1">
          <mxGeometry x="610" y="1040" width="30" height="30" as="geometry" />
        </mxCell>
        <mxCell id="761dnnyQ54j-Cl0NHfQN-42793" value="10" style="rounded=0;whiteSpace=wrap;html=1;fontSize=32;container=0;" parent="2yJXHjSfP-utzKxr89We-13" vertex="1">
          <mxGeometry x="640" y="970" width="100" height="100" as="geometry" />
        </mxCell>
        <mxCell id="761dnnyQ54j-Cl0NHfQN-42794" value="7" style="rounded=0;whiteSpace=wrap;html=1;fontSize=32;container=0;" parent="2yJXHjSfP-utzKxr89We-13" vertex="1">
          <mxGeometry x="570" y="970" width="70" height="70" as="geometry" />
        </mxCell>
        <mxCell id="761dnnyQ54j-Cl0NHfQN-42795" value="27" style="rounded=0;whiteSpace=wrap;html=1;fontSize=32;container=0;" parent="2yJXHjSfP-utzKxr89We-13" vertex="1">
          <mxGeometry x="740" y="800" width="270" height="270" as="geometry" />
        </mxCell>
        <mxCell id="761dnnyQ54j-Cl0NHfQN-42796" value="17" style="rounded=0;whiteSpace=wrap;html=1;fontSize=32;container=0;" parent="2yJXHjSfP-utzKxr89We-13" vertex="1">
          <mxGeometry x="570" y="800" width="170" height="170" as="geometry" />
        </mxCell>
        <mxCell id="761dnnyQ54j-Cl0NHfQN-42797" value="38" style="rounded=0;whiteSpace=wrap;html=1;fontSize=32;container=0;" parent="2yJXHjSfP-utzKxr89We-13" vertex="1">
          <mxGeometry x="1010" y="590" width="380" height="380" as="geometry" />
        </mxCell>
        <mxCell id="761dnnyQ54j-Cl0NHfQN-42798" value="80" style="rounded=0;whiteSpace=wrap;html=1;fontSize=32;container=0;" parent="2yJXHjSfP-utzKxr89We-13" vertex="1">
          <mxGeometry width="800" height="800" as="geometry" />
        </mxCell>
        <mxCell id="761dnnyQ54j-Cl0NHfQN-42799" value="21" style="rounded=0;whiteSpace=wrap;html=1;fontSize=32;container=0;" parent="2yJXHjSfP-utzKxr89We-13" vertex="1">
          <mxGeometry x="800" y="590" width="210" height="210" as="geometry" />
        </mxCell>
        <mxCell id="761dnnyQ54j-Cl0NHfQN-42800" value="59" style="rounded=0;whiteSpace=wrap;html=1;fontSize=32;container=0;" parent="2yJXHjSfP-utzKxr89We-13" vertex="1">
          <mxGeometry x="800" width="590" height="590" as="geometry" />
        </mxCell>
      </root>
    </mxGraphModel>
  </diagram>
</mxfile>
